<svg width="16" height="20" viewBox="0 0 16 20" fill="none" xmlns="http://www.w3.org/2000/svg">
<path d="M6.50006 14C6.50006 13.1716 7.17163 12.5 8.00006 12.5C8.82849 12.5 9.50006 13.1716 9.50006 14C9.50006 14.8284 8.82849 15.5 8.00006 15.5C7.17163 15.5 6.50006 14.8284 6.50006 14Z" fill="#3F3B4C"/>
<path fill-rule="evenodd" clip-rule="evenodd" d="M3.62171 8.59713L3.30627 5.75816C3.26583 5.39418 3.26583 5.02684 3.30627 4.66286L3.32904 4.45796C3.57053 2.28457 5.27913 0.564916 7.45091 0.309412C7.81574 0.266492 8.18434 0.266492 8.54916 0.309412C10.7209 0.564916 12.4295 2.28458 12.671 4.45797L12.6938 4.66286C12.7342 5.02684 12.7342 5.39418 12.6938 5.75815L12.3784 8.59712L13.065 8.65194C14.1477 8.73837 15.0318 9.55228 15.2073 10.6242C15.5734 12.8598 15.5734 15.1401 15.2073 17.3758C15.0318 18.4477 14.1477 19.2616 13.065 19.348L11.5688 19.4675C9.19345 19.6571 6.80673 19.6571 4.43134 19.4675L2.93521 19.348C1.85249 19.2616 0.96838 18.4477 0.792864 17.3758C0.426793 15.1401 0.426793 12.8598 0.792864 10.6242C0.96838 9.55228 1.85248 8.73837 2.93521 8.65194L3.62171 8.59713ZM7.62617 1.79914C7.87456 1.76992 8.12551 1.76992 8.3739 1.79914C9.85253 1.97309 11.0158 3.1439 11.1802 4.62361L11.203 4.82851C11.2312 5.08239 11.2312 5.33862 11.203 5.59251L10.8818 8.48296C8.96262 8.35938 7.03746 8.35938 5.11826 8.48296L4.7971 5.59251C4.76889 5.33862 4.76889 5.08239 4.7971 4.82851L4.81986 4.62361C4.98428 3.1439 6.14755 1.97309 7.62617 1.79914ZM11.4495 10.0277C9.15353 9.84445 6.84664 9.84445 4.55071 10.0277L3.05458 10.1472C2.65965 10.1787 2.33717 10.4756 2.27315 10.8666C1.93336 12.9417 1.93336 15.0583 2.27315 17.1334C2.33717 17.5244 2.65965 17.8213 3.05458 17.8528L4.55071 17.9722C6.84664 18.1555 9.15354 18.1555 11.4495 17.9722L12.9456 17.8528C13.3405 17.8213 13.663 17.5244 13.727 17.1334C14.0668 15.0583 14.0668 12.9417 13.727 10.8666C13.663 10.4756 13.3405 10.1787 12.9456 10.1472L11.4495 10.0277Z" fill="#3F3B4C"/>
</svg>
